<svg xmlns="http://www.w3.org/2000/svg" width="960" height="560" viewBox="0 0 960 560" role="img" aria-label="Agentic workflow publication thumbnail">
  <rect width="960" height="560" fill="#f7f9fb"/>
  <rect x="76" y="74" width="198" height="118" rx="14" fill="#ffffff" stroke="#cdd9e3" stroke-width="4"/>
  <rect x="381" y="74" width="198" height="118" rx="14" fill="#ffffff" stroke="#cdd9e3" stroke-width="4"/>
  <rect x="686" y="74" width="198" height="118" rx="14" fill="#ffffff" stroke="#cdd9e3" stroke-width="4"/>
  <rect x="228" y="342" width="198" height="118" rx="14" fill="#ffffff" stroke="#cdd9e3" stroke-width="4"/>
  <rect x="534" y="342" width="198" height="118" rx="14" fill="#ffffff" stroke="#cdd9e3" stroke-width="4"/>
  <path d="M274 133h107M579 133h107M480 192v150M426 401h108" fill="none" stroke="#1772a8" stroke-width="10" stroke-linecap="round"/>
  <circle cx="175" cy="133" r="28" fill="#e5f3f8" stroke="#1772a8" stroke-width="5"/>
  <path d="M160 134h30M175 119v30" stroke="#1772a8" stroke-width="6" stroke-linecap="round"/>
  <path d="M456 116h48M456 133h48M456 150h48" stroke="#6d7d8b" stroke-width="7" stroke-linecap="round"/>
  <path d="M757 111h56l-28 44z" fill="#e7dff2" stroke="#8064a3" stroke-width="5"/>
  <path d="M306 382h42v42h-42zM628 382h42v42h-42z" fill="#eef6ed" stroke="#5f8a68" stroke-width="5"/>
  <text x="175" y="232" text-anchor="middle" font-family="Arial, sans-serif" font-size="25" fill="#26343f">Query</text>
  <text x="480" y="232" text-anchor="middle" font-family="Arial, sans-serif" font-size="25" fill="#26343f">Difficulty</text>
  <text x="785" y="232" text-anchor="middle" font-family="Arial, sans-serif" font-size="25" fill="#26343f">Orchestrator</text>
  <text x="327" y="500" text-anchor="middle" font-family="Arial, sans-serif" font-size="25" fill="#26343f">Agents</text>
  <text x="633" y="500" text-anchor="middle" font-family="Arial, sans-serif" font-size="25" fill="#26343f">Answer</text>
</svg>
