<svg xmlns="http://www.w3.org/2000/svg" viewBox="0 0 64 64" role="img" aria-labelledby="title">
  <title>Computer vision scan mark</title>
  <defs>
    <linearGradient id="bg" x1="12" y1="8" x2="54" y2="58" gradientUnits="userSpaceOnUse">
      <stop offset="0" stop-color="#0f172a"/>
      <stop offset="0.58" stop-color="#113342"/>
      <stop offset="1" stop-color="#155e75"/>
    </linearGradient>
    <filter id="softGlow" x="-20%" y="-20%" width="140%" height="140%">
      <feGaussianBlur stdDeviation="1.4" result="blur"/>
      <feMerge>
        <feMergeNode in="blur"/>
        <feMergeNode in="SourceGraphic"/>
      </feMerge>
    </filter>
  </defs>
  <rect width="64" height="64" rx="15" fill="url(#bg)"/>
  <path d="M17 25v-8h8M39 17h8v8M47 39v8h-8M25 47h-8v-8" fill="none" stroke="#a7f3d0" stroke-width="3.6" stroke-linecap="round" stroke-linejoin="round"/>
  <path d="M17 32h7M40 32h7" fill="none" stroke="#67e8f9" stroke-width="2.4" stroke-linecap="round" opacity="0.9"/>
  <circle cx="32" cy="32" r="11.5" fill="#0b1220" stroke="#e0f2fe" stroke-width="3"/>
  <circle cx="32" cy="32" r="4.6" fill="#67e8f9" filter="url(#softGlow)"/>
  <path d="M32 20.5c5.6 2.2 9.1 6.1 11.1 11.5-2 5.4-5.5 9.3-11.1 11.5-5.6-2.2-9.1-6.1-11.1-11.5 2-5.4 5.5-9.3 11.1-11.5Z" fill="none" stroke="#bae6fd" stroke-width="1.8" stroke-linejoin="round" opacity="0.78"/>
  <circle cx="48" cy="18" r="2.4" fill="#f8fafc"/>
  <circle cx="50" cy="46" r="2.4" fill="#f8fafc"/>
  <circle cx="16" cy="46" r="2.4" fill="#f8fafc"/>
  <path d="M48 18l-8 8M50 46l-8-8M16 46l8-8" fill="none" stroke="#f8fafc" stroke-width="1.7" stroke-linecap="round" opacity="0.72"/>
</svg>
